<?xml version="1.0" encoding="UTF-8" standalone="no"?>
<svg
   version="1.1"
   id="Layer_1"
   x="0px"
   y="0px"
   viewBox="0 0 230 64"
   xml:space="preserve"
   sodipodi:docname="mysql_logo.svg"
   width="230"
   height="64"
   inkscape:version="1.2.2 (b0a8486541, 2022-12-01)"
   xmlns:inkscape="http://www.inkscape.org/namespaces/inkscape"
   xmlns:sodipodi="http://sodipodi.sourceforge.net/DTD/sodipodi-0.dtd"
   xmlns="http://www.w3.org/2000/svg"
   xmlns:svg="http://www.w3.org/2000/svg"
   xmlns:ns="ns_sfw;"><defs
   id="defs328" /><sodipodi:namedview
   id="namedview326"
   pagecolor="#ffffff"
   bordercolor="#666666"
   borderopacity="1.0"
   inkscape:showpageshadow="2"
   inkscape:pageopacity="0.0"
   inkscape:pagecheckerboard="0"
   inkscape:deskcolor="#d1d1d1"
   showgrid="false"
   inkscape:zoom="2.835098"
   inkscape:cx="50.615534"
   inkscape:cy="32.626738"
   inkscape:window-width="1920"
   inkscape:window-height="1043"
   inkscape:window-x="0"
   inkscape:window-y="0"
   inkscape:window-maximized="1"
   inkscape:current-layer="g323" />
 <style
   type="text/css"
   id="style299">
  .st0{fill:#00758F;}
	.st1{fill:#F29111;}
	.st2{fill-rule:evenodd;clip-rule:evenodd;fill:#F29111;}
	.st3{fill-rule:evenodd;clip-rule:evenodd;fill:#00758F;}
 </style>
 <metadata
   id="metadata301">
  <ns:sfw>
   <ns:slices>
   </ns:slices>
   <ns:sliceSourceBounds
   bottomLeftOrigin="true"
   height="106"
   width="155.7"
   x="116.2"
   y="79.1">
   </ns:sliceSourceBounds>
  </ns:sfw>
 </metadata>
 <g
   transform="matrix(1.8189257,0,0,1.8237746,-44.795504,-64.843651)"
   id="g323">
  <g
   transform="matrix(1.2320276,0,0,-1.2320276,31.388874,177.31785)"
   id="g321">
   <g
   transform="scale(0.1)"
   id="g319">
    <path
   class="st0"
   d="m 491.1,942 h -26 c -0.9,43.9 -3.4,85.2 -7.6,123.8 h -0.2 L 417.7,942 h -19.8 l -39.4,123.8 h -0.2 c -2.9,-37.1 -4.8,-78.4 -5.5,-123.8 h -23.7 c 1.5,55.2 5.4,107 11.5,155.4 h 32.2 l 37.5,-114.2 h 0.2 l 37.7,114.2 H 479 c 6.9,-56.7 10.9,-108.5 12.1,-155.4"
   id="path303">
    </path>
    <path
   class="st0"
   d="M 603.9,1056.6 C 593.3,999.1 579.3,957.4 562,931.4 c -13.5,-20.1 -28.3,-30.1 -44.4,-30.1 -4.3,0 -9.6,1.3 -15.9,3.9 V 919 c 3.1,-0.4 6.7,-0.7 10.8,-0.7 7.5,0 13.6,2.1 18.2,6.2 5.5,5.1 8.3,10.7 8.3,17 0,4.3 -2.2,13.1 -6.4,26.5 l -28.5,88.6 h 25.5 l 20.5,-66.3 c 4.6,-15 6.5,-25.6 5.8,-31.5 11.2,29.9 19,62.5 23.5,97.8 h 24.5"
   id="path305">
    </path>
    <path
   class="st1"
   d="m 717.8,985 c 0,-13.2 -4.8,-24 -14.5,-32.5 -9.7,-8.4 -22.6,-12.6 -38.9,-12.6 -15.2,0 -29.9,4.9 -44.2,14.5 l 6.7,13.3 c 12.3,-6.1 23.4,-9.2 33.4,-9.2 9.4,0 16.7,2.1 22,6.2 5.3,4.1 8.5,9.9 8.5,17.3 0,9.2 -6.4,17.1 -18.2,23.7 -10.9,6 -32.7,18.5 -32.7,18.5 -11.8,8.6 -17.7,17.8 -17.7,33.1 0,12.6 4.4,22.8 13.2,30.5 8.8,7.8 20.2,11.6 34.2,11.6 14.4,0 27.5,-3.8 39.3,-11.5 l -6,-13.3 c -10.1,4.3 -20.1,6.4 -29.9,6.4 -8,0 -14.1,-1.9 -18.4,-5.8 -4.3,-3.8 -7,-8.7 -7,-14.7 0,-9.2 6.6,-17.2 18.7,-23.9 11,-6 33.3,-18.7 33.3,-18.7 12.2,-8.6 18.2,-17.8 18.2,-32.9"
   id="path307">
    </path>
    <path
   class="st2"
   d="m 764.3,973 c -6.3,10.1 -9.4,26.4 -9.4,48.8 0,39.1 11.9,58.7 35.7,58.7 12.4,0 21.6,-4.7 27.4,-14 6.3,-10.1 9.4,-26.2 9.4,-48.3 0,-39.4 -11.9,-59.2 -35.7,-59.2 -12.4,0 -21.6,4.7 -27.4,14 m 92.5,-34.8 -28.6,14.1 c 2.5,2.1 5,4.3 7.1,6.9 12.1,14.3 18.2,35.4 18.2,63.3 0,51.4 -20.2,77.1 -60.5,77.1 -19.8,0 -35.2,-6.5 -46.3,-19.6 -12.1,-14.3 -18.2,-35.3 -18.2,-63.1 0,-27.3 5.4,-47.3 16.1,-60.1 9.8,-11.5 24.6,-17.3 44.4,-17.3 7.4,0 14.2,0.9 20.3,2.7 l 37.2,-21.6 10.3,17.6"
   id="path309">
    </path>
    <path
   class="st1"
   d="m 950,942 h -73.9 v 155.4 H 901 V 961.1 h 49 V 942"
   id="path311">
    </path>
    
    <path
   class="st3"
   d="m 224.08208,935.37217 c -15,0.4 -26.7,-1.1 -36.4,-5.3 -2.8,-1.1 -7.3,-1.1 -7.7,-4.7 1.5,-1.5 1.7,-3.9 3,-6 2.2,-3.8 6.2,-8.8 9.8,-11.4 3.9,-3 7.9,-6 12,-8.6 7.3,-4.5 15.6,-7.1 22.7,-11.6 4.1,-2.6 8.3,-6 12.4,-8.8 2.1,-1.5 3.4,-3.9 6,-4.9 v 0.6 c -1.3,1.7 -1.7,4.1 -3,6 -1.9,1.9 -3.8,3.6 -5.6,5.4 -5.4,7.3 -12.2,13.7 -19.5,19 -6,4.1 -19.2,9.8 -21.6,16.7 0,0 -0.2,0.2 -0.4,0.4 4.1,0.4 9,1.9 13,3 6.4,1.7 12.2,1.3 18.8,3 3,0.8 6,1.7 9,2.6 v 1.7 c -3.4,3.4 -5.8,7.9 -9.4,11.1 -9.6,8.3 -20.1,16.3 -31,23.1 -5.8,3.8 -13.3,6.2 -19.5,9.4 -2.2,1.1 -6,1.7 -7.3,3.6 -3.4,4.1 -5.3,9.6 -7.7,14.5 -5.4,10.30003 -10.7,21.80003 -15.4,32.70003 -3.4,7.3 -5.4,14.6 -9.6,21.4 -19.3,31.9 -40.399995,51.2 -72.599995,70.2 -6.9,3.9 -15.2,5.6 -24,7.7 -4.7,0.2 -9.4,0.6 -14.1,0.7 -3,1.3 -6,4.9 -8.6,6.6 -10.7000004,6.8 -38.3,21.4 -46.2,2.1 -5.1,-12.2 7.5,-24.2 11.8,-30.4 3.2,-4.3 7.2999996,-9.2 9.5999996,-14.1 1.3,-3.2 1.7,-6.6 3,-10 3,-8.3 5.8,-17.5 9.8,-25.2 2.1,-3.9 4.3,-8.1 6.9000004,-11.6 1.5,-2.1 4.1,-3 4.7,-6.4 -2.6,-3.8 -2.8,-9.4 -4.3,-14.1 -6.8000004,-21.2 -4.1000004,-47.50003 5.4,-63.10003 3,-4.7 10.1,-15 19.7,-11.1 8.4,3.4 6.6,14.1 9,23.5 0.6,2.3 0.2,3.8 1.3,5.3 v -0.4 c 2.6,-5.2 5.3,-10.3 7.7,-15.6 5.8,-9.2 16,-18.8 24.4,-25.1 4.5,-3.4 8.1,-9.2 13.7,-11.3 v 0.6 h -0.4 c -1.1,1.7 -2.8,2.4 -4.3,3.7 -3.4,3.4 -7.1,7.5 -9.8,11.3 -7.9,10.5 -14.8,22.2 -21,34.2 -3,5.8 -5.6,12.2 -8.1,18 -1.1,2.2 -1.1,5.6 -3,6.80003 -2.8,-4.10003 -6.9,-7.70003 -9,-12.70003 -3.6,-8.1 -3.9,-18 -5.3,-28.4 -0.7,-0.2 -0.4,0 -0.7,-0.4 -6,1.5 -8.1,7.7 -10.3,12.9 -5.6,13.3 -6.6,34.70003 -1.7,50.10003 1.3,3.9 7,16.3 4.7,20.1 -1.1,3.6 -4.9,5.6 -6.9,8.5 -2.4,3.6 -5.1,8.1 -6.7,12 -4.5000004,10.5 -6.8000004,22.2 -11.60000043,32.7 -2.29999997,4.9 -6.19999997,10 -9.39999997,14.5 -3.5999996,5.1 -7.4999996,8.6 -10.2999996,14.6 -0.9,2.1 -2.2,5.5 -0.8,7.7 0.4,1.5 1.1,2.1 2.6,2.4 2.4,2.1 9.3999996,-0.6 11.7999996,-1.7 6.99999997,-2.8 12.8,-5.5 18.6000004,-9.4 2.6,-1.9 5.4,-5.4 8.8,-6.4 h 4 c 6,-1.3 12.8,-0.4 18.4,-2.1 9.9,-3.2 19,-7.9 27,-13 24.6,-15.6 44.899995,-37.7 58.599995,-64.2 2.3,-4.3 3.2,-8.3 5.3,-12.8 3.9,-9.2 8.8,-18.6 12.8,-27.60003 3.9,-8.8 7.7,-17.8 13.3,-25.2 2.8,-3.9 14.1,-6 19.1,-8.1 3.7,-1.7 9.6,-3.2 13,-5.2 6.4,-3.9 12.8,-8.4 18.8,-12.8 2.8,-2.3 12.2,-7 12.7,-10.7"
   id="path315">
    </path>
    <path
   class="st3"
   d="m 32.682085,1098.4722 c -3.2,0 -5.4,-0.4 -7.7,-0.9 v -0.4 h 0.4 c 1.5,-3 4.1,-5.1 6,-7.7 1.5,-3 2.8,-6 4.3,-9 0.2,0.2 0.4,0.4 0.4,0.4 2.6,1.9 4,4.9 4,9.4 -1.1,1.3 -1.3,2.6 -2.3,3.9 -1.2,1.9 -3.6,2.8 -5.1,4.3"
   id="path317">
    </path>
   </g>
  </g>
 </g>
</svg>
