<?xml version="1.0" encoding="UTF-8" standalone="no"?>
<!-- Created with Inkscape (http://www.inkscape.org/) -->

<svg
   width="232"
   height="64"
   viewBox="0 0 61.383332 16.933333"
   version="1.1"
   id="svg5"
   xmlns="http://www.w3.org/2000/svg"
   xmlns:svg="http://www.w3.org/2000/svg">
  <defs
     id="defs2">
    <linearGradient
       gradientUnits="userSpaceOnUse"
       id=":r8:paint0_linear_408_134"
       x1="109"
       x2="144.5"
       y1="116.5"
       y2="160.5">
      <stop
         stop-color="white"
         id="stop664" />
      <stop
         offset="1"
         stop-color="white"
         stop-opacity="0"
         id="stop666" />
    </linearGradient>
    <linearGradient
       gradientUnits="userSpaceOnUse"
       id=":r8:paint1_linear_408_134"
       x1="121"
       x2="120.799"
       y1="54"
       y2="106.875">
      <stop
         stop-color="white"
         id="stop669" />
      <stop
         offset="1"
         stop-color="white"
         stop-opacity="0"
         id="stop671" />
    </linearGradient>
    <clipPath
       id="clip0_53_108">
      <rect
         width="16"
         height="16"
         fill="#ff0000"
         id="rect273"
         x="0"
         y="0" />
    </clipPath>
    <linearGradient
       id="paint0_linear_53_108vsxrmxu21"
       x1="11.13"
       y1="5"
       x2="11.13"
       y2="11"
       gradientUnits="userSpaceOnUse">
      <stop
         stop-color="white"
         id="stop259" />
      <stop
         offset="0.609375"
         stop-color="white"
         stop-opacity="0.57"
         id="stop261" />
      <stop
         offset="0.796875"
         stop-color="white"
         stop-opacity="0"
         id="stop263" />
      <stop
         offset="1"
         stop-color="white"
         stop-opacity="0"
         id="stop265" />
    </linearGradient>
    <linearGradient
       id="paint1_linear_53_108vsxrmxu21"
       x1="9.9375"
       y1="9.0625"
       x2="13.5574"
       y2="13.3992"
       gradientUnits="userSpaceOnUse">
      <stop
         stop-color="white"
         id="stop268" />
      <stop
         offset="1"
         stop-color="white"
         stop-opacity="0"
         id="stop270" />
    </linearGradient>
  </defs>
  <path
     d="M 39.774383,2.436342 H 49.959662 V 4.3162779 H 45.919271 V 14.206367 H 43.898927 V 4.3162779 h -4.124544 z"
     fill="#000000"
     id="path2"
     style="stroke-width:0.148413" />
  <path
     d="M 23.023461,2.436342 V 4.3162779 H 14.85928 v 3.0242402 h 6.565624 V 9.2204496 H 14.85928 v 3.1059864 h 8.164181 v 1.879931 H 12.839069 V 4.3162779 h -8.42e-4 V 2.436342 Z"
     fill="#000000"
     id="path4"
     style="stroke-width:0.148413" />
  <path
     d="M 28.109275,2.4412512 H 25.465448 L 34.935083,14.21128 h 2.651545 l -4.735412,-5.8809662 4.727844,-5.8800826 -2.643977,0.0041 -3.407562,4.2320711 z"
     fill="#000000"
     id="path6"
     style="stroke-width:0.148413" />
  <path
     d="m 30.822264,10.848644 -1.323992,-1.646182 -4.040394,5.017796 h 2.651397 z"
     fill="#000000"
     id="path8"
     style="stroke-width:0.148413" />
  <path
     fill-rule="evenodd"
     clip-rule="evenodd"
     d="M 12.909861,14.206367 3.4274778,2.4314339 H 0.90221678 V 14.201455 H 2.9224288 V 4.9472706 l 7.4495272,9.2590964 z"
     fill="#000000"
     id="path10"
     style="stroke-width:0.148413" />
  <path
     d="m 50.413808,14.134476 c -0.147968,0 -0.273824,-0.05124 -0.379194,-0.153755 -0.105383,-0.102511 -0.157471,-0.226612 -0.15613,-0.373631 -0.0011,-0.14298 0.05076,-0.265733 0.15613,-0.368242 0.105369,-0.10251 0.231226,-0.15377 0.379194,-0.15377 0.142325,0 0.266845,0.05127 0.372216,0.15377 0.106858,0.102511 0.160141,0.225262 0.161622,0.368242 -0.0017,0.09711 -0.02614,0.186125 -0.07539,0.265704 -0.0506,0.08094 -0.114874,0.144347 -0.195759,0.190206 -0.0794,0.04721 -0.166967,0.07148 -0.26269,0.07148 z"
     fill="#000000"
     id="path12"
     style="stroke-width:0.148413" />
  <path
     d="m 53.861883,9.1761046 h 0.895229 v 3.4490124 c -0.0011,0.31698 -0.0699,0.588101 -0.203921,0.816063 -0.135499,0.227948 -0.323096,0.401932 -0.56397,0.524685 -0.239535,0.121388 -0.520186,0.183452 -0.839126,0.183452 -0.291633,0 -0.552988,-0.05261 -0.785695,-0.155121 -0.232713,-0.10251 -0.417489,-0.25628 -0.552988,-0.458611 -0.136985,-0.202331 -0.204067,-0.454559 -0.204067,-0.756698 h 0.896709 c 0.0011,0.132192 0.03146,0.246825 0.08889,0.342597 0.05744,0.09577 0.136839,0.168597 0.238206,0.219859 0.102549,0.05127 0.220395,0.0769 0.353072,0.0769 0.143817,0 0.266997,-0.02969 0.366876,-0.09038 0.09989,-0.05935 0.176615,-0.148369 0.230044,-0.267069 0.05195,-0.117341 0.0794,-0.263018 0.08073,-0.435666 z"
     fill="#000000"
     id="path14"
     style="stroke-width:0.148413" />
  <path
     d="M 58.44057,10.524955 C 58.41875,10.315886 58.322877,10.152676 58.155915,10.036677 57.987467,9.9193229 57.769893,9.8613272 57.502896,9.8613272 c -0.187441,0 -0.348917,0.02833 -0.48308,0.083632 -0.134168,0.056647 -0.238204,0.1321758 -0.309442,0.2279468 -0.0711,0.09578 -0.106714,0.205033 -0.109534,0.327785 0,0.10251 0.02462,0.191528 0.07258,0.265718 0.04797,0.07552 0.112197,0.13893 0.195752,0.190192 0.08208,0.0526 0.173794,0.09576 0.273825,0.130826 0.101218,0.03507 0.202586,0.06475 0.3038,0.08904 l 0.466761,0.114652 c 0.187592,0.04316 0.369693,0.101178 0.543487,0.17535 0.173792,0.07283 0.331257,0.16591 0.469431,0.277858 0.13832,0.111963 0.247847,0.246841 0.328588,0.404663 0.08073,0.157808 0.121845,0.342596 0.121845,0.555717 0,0.287298 -0.07391,0.53954 -0.22321,0.758049 -0.149159,0.217157 -0.364062,0.387121 -0.646048,0.509872 -0.280645,0.121401 -0.620069,0.183439 -1.019743,0.183439 -0.386022,0 -0.722771,-0.05934 -1.006091,-0.178037 -0.28465,-0.117354 -0.506527,-0.290012 -0.666667,-0.516625 -0.160134,-0.226596 -0.246367,-0.503119 -0.258685,-0.828187 h 0.887067 c 0.0124,0.169946 0.06708,0.311592 0.160136,0.426241 0.09439,0.113295 0.217573,0.196929 0.368217,0.253578 0.151973,0.0553 0.321609,0.08363 0.509202,0.08363 0.195759,0 0.368211,-0.02969 0.517368,-0.08768 0.147817,-0.058 0.264176,-0.138914 0.347732,-0.244124 0.08488,-0.103881 0.127341,-0.226612 0.128673,-0.366891 -0.0011,-0.128138 -0.03977,-0.234716 -0.113686,-0.318347 -0.07524,-0.08362 -0.179284,-0.153755 -0.312113,-0.210405 -0.134018,-0.05665 -0.290147,-0.107915 -0.468091,-0.152419 l -0.566646,-0.142982 c -0.409322,-0.103855 -0.733753,-0.261667 -0.970624,-0.473437 -0.238053,-0.21177 -0.355893,-0.49233 -0.355893,-0.84438 0,-0.288649 0.0794,-0.542227 0.239685,-0.7594004 0.158654,-0.2171582 0.376379,-0.385769 0.651533,-0.5058204 0.276494,-0.1213884 0.588606,-0.1807522 0.936194,-0.1807522 0.353218,0 0.662514,0.059362 0.929507,0.1807522 0.266845,0.1200567 0.476403,0.2873122 0.628231,0.5004181 0.151978,0.2131217 0.231378,0.4572607 0.235535,0.7337687 z"
     fill="#000000"
     id="path16"
     style="stroke-width:0.148413" />
</svg>
