<?xml version="1.0" encoding="UTF-8" standalone="no"?>
<!-- Created with Inkscape (http://www.inkscape.org/) -->

<svg
   width="296"
   height="64"
   viewBox="0 0 78.316666 16.933333"
   version="1.1"
   id="svg5"
   sodipodi:docname="typescript_logo.svg"
   inkscape:version="1.2.2 (b0a8486541, 2022-12-01)"
   xmlns:inkscape="http://www.inkscape.org/namespaces/inkscape"
   xmlns:sodipodi="http://sodipodi.sourceforge.net/DTD/sodipodi-0.dtd"
   xmlns="http://www.w3.org/2000/svg"
   xmlns:svg="http://www.w3.org/2000/svg">
  <sodipodi:namedview
     id="namedview24"
     pagecolor="#ffffff"
     bordercolor="#666666"
     borderopacity="1.0"
     inkscape:showpageshadow="2"
     inkscape:pageopacity="0.0"
     inkscape:pagecheckerboard="0"
     inkscape:deskcolor="#d1d1d1"
     showgrid="false"
     inkscape:zoom="3.6333333"
     inkscape:cx="146.55963"
     inkscape:cy="47.201835"
     inkscape:window-width="1854"
     inkscape:window-height="1003"
     inkscape:window-x="1986"
     inkscape:window-y="40"
     inkscape:window-maximized="1"
     inkscape:current-layer="layer1" />
  <defs
     id="defs2">
    <linearGradient
       gradientUnits="userSpaceOnUse"
       id=":r8:paint0_linear_408_134"
       x1="109"
       x2="144.5"
       y1="116.5"
       y2="160.5">
      <stop
         stop-color="white"
         id="stop664" />
      <stop
         offset="1"
         stop-color="white"
         stop-opacity="0"
         id="stop666" />
    </linearGradient>
    <linearGradient
       gradientUnits="userSpaceOnUse"
       id=":r8:paint1_linear_408_134"
       x1="121"
       x2="120.799"
       y1="54"
       y2="106.875">
      <stop
         stop-color="white"
         id="stop669" />
      <stop
         offset="1"
         stop-color="white"
         stop-opacity="0"
         id="stop671" />
    </linearGradient>
  </defs>
  <g
     id="layer1">
    <mask
       height="180"
       id=":r8:mask0_408_134"
       maskUnits="userSpaceOnUse"
       width="180"
       x="0"
       y="0">
      <circle
         cx="90"
         cy="90"
         fill="#000000"
         r="90"
         id="circle653" />
    </mask>
    <text
       xml:space="preserve"
       style="font-style:normal;font-weight:normal;font-size:10.0873px;line-height:1.25;font-family:sans-serif;letter-spacing:0px;word-spacing:0px;fill:#3b3b3b;fill-opacity:1;stroke:none;stroke-width:0.252183"
       x="23.414057"
       y="13.111825"
       id="text2285"><tspan
         id="tspan2283"
         style="font-style:normal;font-variant:normal;font-weight:500;font-stretch:normal;font-family:Inter;-inkscape-font-specification:'Inter Medium';fill:#3b3b3b;fill-opacity:1;stroke-width:0.252183"
         x="23.414057"
         y="13.111825">TypeScript</tspan></text>
  </g>
  <path
     d="M 2.5466197,0.03192723 H 18.091907 c 0.348073,0 0.630214,0.2821551 0.630214,0.63021439 V 16.207429 c 0,0.348072 -0.282141,0.630214 -0.630214,0.630214 H 2.5466197 c -0.3480593,0 -0.6302144,-0.282142 -0.6302144,-0.630214 V 0.66214162 c 0,-0.34805929 0.2821551,-0.63021439 0.6302144,-0.63021439 z"
     fill="#ffffff"
     id="path354"
     style="stroke-width:0.0646372" />
  <path
     d="M 2.5466197,0.03192723 H 18.091907 c 0.348073,0 0.630214,0.2821551 0.630214,0.63021439 V 16.207429 c 0,0.348072 -0.282141,0.630214 -0.630214,0.630214 H 2.5466197 c -0.3480593,0 -0.6302144,-0.282142 -0.6302144,-0.630214 V 0.66214162 c 0,-0.34805929 0.2821551,-0.63021439 0.6302144,-0.63021439 z M 11.258444,8.9725682 V 7.5942407 H 5.2774192 V 8.9725682 H 7.4127793 V 15.109627 H 9.1126131 V 8.9725682 Z m 0.677723,5.9750128 c 0.274128,0.139747 0.598349,0.244589 0.972664,0.314461 0.37425,0.06987 0.768732,0.104842 1.183445,0.104842 0.404178,0 0.788124,-0.03846 1.151838,-0.115313 0.36378,-0.07686 0.6827,-0.203543 0.956827,-0.380003 0.274127,-0.17646 0.491115,-0.407021 0.651028,-0.691814 0.159913,-0.284793 0.239869,-0.636807 0.239869,-1.05611 0,-0.303989 -0.0457,-0.57036 -0.137031,-0.799241 -0.0914,-0.228881 -0.223193,-0.432424 -0.395388,-0.610628 -0.172193,-0.178206 -0.378709,-0.338054 -0.61942,-0.479545 -0.240774,-0.141492 -0.51225,-0.275162 -0.814495,-0.400946 -0.221383,-0.09088 -0.419949,-0.17911 -0.595697,-0.264691 -0.175685,-0.08558 -0.325062,-0.172969 -0.448067,-0.262039 -0.123004,-0.08914 -0.217892,-0.183441 -0.284663,-0.283047 -0.06677,-0.099542 -0.100188,-0.2122692 -0.100188,-0.3380534 0,-0.1153133 0.02993,-0.2192504 0.08965,-0.311811 0.05972,-0.092625 0.144077,-0.1721294 0.253056,-0.2385114 0.108914,-0.066383 0.242454,-0.1178988 0.400622,-0.1546132 0.158168,-0.036648 0.333852,-0.055006 0.527182,-0.055006 0.140522,0 0.289059,0.010473 0.445417,0.031411 0.156421,0.021008 0.313684,0.053329 0.471787,0.096957 0.158168,0.043692 0.31194,0.098701 0.461317,0.1651483 0.149377,0.066383 0.287314,0.1432361 0.413809,0.2305617 V 7.8825215 c -0.256546,-0.097861 -0.536814,-0.1703839 -0.840803,-0.2175049 -0.304054,-0.047182 -0.652838,-0.070778 -1.046414,-0.070778 -0.400687,0 -0.780238,0.042789 -1.138717,0.1284346 -0.358478,0.08558 -0.673844,0.2192496 -0.946226,0.4009457 -0.272383,0.1816953 -0.487624,0.4131619 -0.645792,0.6943991 -0.158168,0.2813016 -0.23722,0.6176101 -0.23722,1.0089243 0,0.4997117 0.144983,0.9259957 0.434945,1.2788507 0.289899,0.35292 0.73008,0.651674 1.320542,0.896262 0.231919,0.09437 0.448066,0.186931 0.648378,0.277812 0.200311,0.09082 0.37341,0.185185 0.519232,0.282981 0.145886,0.09786 0.26094,0.204384 0.345292,0.319697 0.08435,0.115313 0.12656,0.246333 0.12656,0.393124 0,0.108332 -0.02637,0.20878 -0.07912,0.30134 -0.05268,0.09262 -0.132636,0.172969 -0.239804,0.241097 -0.107234,0.06813 -0.240775,0.121454 -0.400687,0.159848 -0.159913,0.03846 -0.347039,0.05766 -0.561441,0.05766 -0.365459,0 -0.727428,-0.06373 -1.085908,-0.191261 -0.358478,-0.12753 -0.690586,-0.318857 -0.996385,-0.573916 z"
     fill="#3178c6"
     id="path356"
     style="stroke-width:0.0646372" />
</svg>
