<?xml version="1.0" encoding="UTF-8" standalone="no"?>
<!-- Created with Inkscape (http://www.inkscape.org/) -->

<svg
   width="230"
   height="64"
   viewBox="0 0 60.854166 16.933333"
   version="1.1"
   id="svg5"
   sodipodi:docname="vue_logo.svg"
   inkscape:version="1.2.2 (b0a8486541, 2022-12-01)"
   xmlns:inkscape="http://www.inkscape.org/namespaces/inkscape"
   xmlns:sodipodi="http://sodipodi.sourceforge.net/DTD/sodipodi-0.dtd"
   xmlns="http://www.w3.org/2000/svg"
   xmlns:svg="http://www.w3.org/2000/svg">
  <sodipodi:namedview
     id="namedview24"
     pagecolor="#ffffff"
     bordercolor="#666666"
     borderopacity="1.0"
     inkscape:showpageshadow="2"
     inkscape:pageopacity="0.0"
     inkscape:pagecheckerboard="0"
     inkscape:deskcolor="#d1d1d1"
     showgrid="false"
     inkscape:zoom="3.6333333"
     inkscape:cx="68.944954"
     inkscape:cy="30.137615"
     inkscape:window-width="1854"
     inkscape:window-height="1003"
     inkscape:window-x="1986"
     inkscape:window-y="40"
     inkscape:window-maximized="1"
     inkscape:current-layer="svg5" />
  <defs
     id="defs2">
    <linearGradient
       gradientUnits="userSpaceOnUse"
       id=":r8:paint0_linear_408_134"
       x1="109"
       x2="144.5"
       y1="116.5"
       y2="160.5">
      <stop
         stop-color="white"
         id="stop664" />
      <stop
         offset="1"
         stop-color="white"
         stop-opacity="0"
         id="stop666" />
    </linearGradient>
    <linearGradient
       gradientUnits="userSpaceOnUse"
       id=":r8:paint1_linear_408_134"
       x1="121"
       x2="120.799"
       y1="54"
       y2="106.875">
      <stop
         stop-color="white"
         id="stop669" />
      <stop
         offset="1"
         stop-color="white"
         stop-opacity="0"
         id="stop671" />
    </linearGradient>
  </defs>
  <g
     id="layer1">
    <path
       id="rect234"
       style="fill:#42b883;fill-opacity:1;stroke-width:0.0307154;stroke-linecap:square;paint-order:markers fill stroke"
       d="m 0.29990845,0.26871783 -0.0147983,0.008598 1.65015285,2.85817177 0.008,-0.0046 7.8950181,13.6745514 V 10.822338 L 3.915565,0.26871937 Z m 15.46148655,1.54e-6 -5.9227143,10.55361863 3e-7,5.983103 7.895018,-13.6745517 0.008,0.00459 1.650153,-2.85817178 -0.0148,-0.00861 z" />
    <path
       id="rect234-3"
       style="fill:#35495e;fill-opacity:1;stroke-width:0.0307154;stroke-linecap:square;paint-order:markers fill stroke"
       d="M 3.6834021,0.26971775 9.8420805,10.936721 V 4.953616 L 7.213474,0.26971775 Z m 8.7876849,0 L 9.8424803,4.953616 v 5.983105 L 16.001159,0.26971775 Z" />
    <g
       aria-label="N"
       transform="matrix(1.2676419,0,0,0.87406686,-12.791782,0.22049453)"
       id="text293"
       style="font-size:12.1081px;letter-spacing:0px;word-spacing:0px;stroke-width:0.302704">
      <path
         id="path573"
         style="-inkscape-font-specification:Inter"
         d="m 103.52295,35.138468 v 8.809153 h 1.06418 v -5.108126 c 0,-0.149775 -0.002,-0.352762 -0.006,-0.608955 -0.004,-0.260134 -0.0121,-0.569542 -0.0239,-0.928213 -0.005,-0.21689 -0.0118,-0.452816 -0.0208,-0.703549 0.17637,0.295353 0.345,0.577052 0.49956,0.833617 0.19707,0.327139 0.36864,0.610928 0.51447,0.851355 0.14978,0.240428 0.26786,0.429619 0.35458,0.567569 l 3.2282,5.096302 h 1.10934 c -0.3477,-0.570025 -0.71906,-1.152756 -1.03881,-1.692065 -0.0465,-0.08028 -0.0935,-0.16046 -0.14137,-0.241217 -0.13796,-0.236486 -0.26808,-0.455239 -0.39026,-0.656252 -0.11825,-0.201013 -0.21658,-0.362615 -0.2954,-0.484799 l -3.63021,-5.734818 z" />
    </g>
    <g
       aria-label="E"
       transform="matrix(1.1440772,0,0,0.87406688,0,0.20941135)"
       id="text293-3"
       style="font-size:12.1081px;letter-spacing:0px;word-spacing:0px;stroke-width:0.302704">
      <path
         d="m 111.15443,43.9603 v -8.809115 h 5.72888 v 0.945945 h -4.6647 v 2.879221 h 4.08133 v 0.945945 h -4.08133 v 3.092059 h 4.6647 V 43.9603 Z"
         style="-inkscape-font-specification:Inter"
         id="path643" />
    </g>
    <text
       xml:space="preserve"
       style="font-style:normal;font-weight:normal;font-size:12.1081px;line-height:1.25;font-family:sans-serif;letter-spacing:0px;word-spacing:0px;fill:#000000;fill-opacity:1;stroke:none;stroke-width:0.302704"
       x="95.989891"
       y="99.011955"
       id="text293-35"
       transform="scale(1.1440772,0.87406687)"><tspan
         id="tspan291-62"
         style="font-style:normal;font-variant:normal;font-weight:normal;font-stretch:normal;font-family:Inter;-inkscape-font-specification:Inter;stroke-width:0.302704"
         x="95.989891"
         y="99.011955">NEXT</tspan></text>
    <rect
       style="fill:#087ea4;stroke-width:2.231;stroke-linecap:square;paint-order:markers fill stroke"
       id="rect651"
       width="11.271093"
       height="0.85579306"
       x="110.96432"
       y="-82.866928"
       transform="rotate(49.422505)" />
    <mask
       height="180"
       id=":r8:mask0_408_134"
       maskUnits="userSpaceOnUse"
       width="180"
       x="0"
       y="0">
      <circle
         cx="90"
         cy="90"
         fill="#000000"
         r="90"
         id="circle653" />
    </mask>
    <text
       xml:space="preserve"
       style="font-style:normal;font-weight:normal;font-size:10.0873px;line-height:1.25;font-family:sans-serif;letter-spacing:0px;word-spacing:0px;fill:#3b3b3b;fill-opacity:1;stroke:none;stroke-width:0.252183"
       x="23.414057"
       y="12.326082"
       id="text2285"><tspan
         id="tspan2283"
         style="font-style:normal;font-variant:normal;font-weight:500;font-stretch:normal;font-family:Inter;-inkscape-font-specification:'Inter Medium';fill:#3b3b3b;fill-opacity:1;stroke-width:0.252183"
         x="23.414057"
         y="12.326082">Vue.js</tspan></text>
  </g>
</svg>
